<?xml version="1.0" encoding="UTF-8"?>
<!DOCTYPE svg PUBLIC "-//W3C//DTD SVG 1.1//EN" "http://www.w3.org/Graphics/SVG/1.1/DTD/svg11.dtd">
<!-- Creator: CorelDRAW 2019 (64-Bit) -->
<svg xmlns="http://www.w3.org/2000/svg" xml:space="preserve" width="3.09069in" height="2.86061in" version="1.1" style="shape-rendering:geometricPrecision; text-rendering:geometricPrecision; image-rendering:optimizeQuality; fill-rule:evenodd; clip-rule:evenodd"
viewBox="0 0 182.47 168.89"
 xmlns:xlink="http://www.w3.org/1999/xlink">
 <defs>
  <style type="text/css">
   <![CDATA[
    .fil2 {fill:#001430;fill-rule:nonzero}
    .fil0 {fill:#00D5FF;fill-rule:nonzero}
    .fil1 {fill:white;fill-rule:nonzero}
   ]]>
  </style>
 </defs>
 <g id="Layer_x0020_1">
  <metadata id="CorelCorpID_0Corel-Layer"/>
  <path class="fil0" d="M157 127.64c8.15,-13.7 11.89,-28.18 11.89,-43.2 0,-46.63 -37.82,-84.44 -84.44,-84.44 -46.63,0 -84.44,37.82 -84.44,84.44 0,46.63 37.82,84.44 84.44,84.44 19.03,0 36.26,-6.14 50.5,-16.77 15.84,3.2 31.68,6.4 47.52,9.6 -25.47,-34.08 -16.98,-22.72 -25.47,-34.08z"/>
  <path class="fil1" d="M58.82 21.77c-1.05,0 -1.57,0.15 -2.04,0.52 -0.76,0.56 -1.44,1.54 -2.25,4.8 -0.82,3.25 -0.62,4.23 -0.15,4.8 0.29,0.36 0.75,0.52 1.79,0.52l3.3 0c1.05,0 1.57,-0.15 2.04,-0.52 0.75,-0.58 1.43,-1.55 2.25,-4.8 0.81,-3.27 0.61,-4.24 0.15,-4.8 -0.29,-0.36 -0.74,-0.52 -1.79,-0.52l-3.3 0zm-1.75 5.32c0.67,-2.71 0.96,-3.09 1.13,-3.21 0.14,-0.11 0.29,-0.15 0.78,-0.15l2.02 0c0.49,0 0.61,0.05 0.68,0.15 0.11,0.12 0.21,0.5 -0.46,3.21 -0.67,2.69 -0.97,3.07 -1.14,3.21 -0.12,0.09 -0.27,0.15 -0.76,0.14l-2.02 0c-0.49,0 -0.61,-0.05 -0.7,-0.14 -0.11,-0.14 -0.21,-0.5 0.47,-3.21zm19.28 -5.32l-2.37 0 -1.67 6.71 -0.15 0 -1.82 -6.07c-0.15,-0.5 -0.36,-0.64 -0.94,-0.64l-2.33 0 -2.65 10.64 2.37 0 1.79 -7.21 0.15 0 2.02 6.57c0.15,0.49 0.38,0.64 0.94,0.64l2.01 0 2.65 -10.64zm4.74 0l-2.48 0 -2.65 10.64 7.54 0 0.49 -1.96 -5.06 0 2.16 -8.68zm6.49 10.64l2.65 -10.64 -2.49 0 -2.65 10.64 2.49 0zm0.46 -11.68l2.42 0 0.5 -2.01 -2.42 0 -0.5 2.01zm13.82 1.03l-2.37 0 -1.67 6.71 -0.15 0 -1.82 -6.07c-0.15,-0.5 -0.36,-0.64 -0.94,-0.64l-2.33 0 -2.65 10.64 2.37 0 1.79 -7.21 0.15 0 2.02 6.57c0.15,0.49 0.38,0.64 0.94,0.64l2.01 0 2.65 -10.64zm8.09 8.68l-5.5 0 0.64 -2.57 4.29 0 0.46 -1.87 -4.29 0 0.58 -2.28 5.5 0 0.49 -1.96 -7.98 0 -2.65 10.64 7.98 0 0.49 -1.96zm-80.89 8.88l0.7 -2.84 2.65 0c0.52,0 0.67,0.05 0.73,0.12 0.12,0.14 0.18,0.43 -0.03,1.28 -0.21,0.87 -0.43,1.16 -0.61,1.31 -0.11,0.08 -0.27,0.14 -0.79,0.14l-2.65 0zm2.81 3.22c-0.24,1.06 -0.4,1.93 -0.46,2.65l2.51 0c0.08,-0.58 0.26,-1.55 0.53,-2.81 0.33,-1.55 -0.12,-1.86 -1.16,-2.08l0 -0.03c1.29,-0.21 1.98,-0.78 2.45,-2.69 0.4,-1.54 0.29,-2.1 -0.05,-2.54 -0.27,-0.36 -0.79,-0.49 -1.67,-0.49l-6.26 0 -2.65 10.64 2.48 0 1 -4.03 2.28 0c0.64,0 0.84,0.06 0.97,0.21 0.14,0.17 0.2,0.35 0.02,1.17zm12.61 0.68l-5.5 0 0.64 -2.57 4.29 0 0.46 -1.87 -4.29 0 0.58 -2.28 5.5 0 0.49 -1.96 -7.98 0 -2.65 10.64 7.98 0 0.49 -1.96zm9.96 0l-5.5 0 7.3 -6.96 0.43 -1.72 -8.55 0 -0.49 1.98 5.38 0 -7.37 6.93 -0.43 1.73 8.74 0 0.49 -1.96zm9.81 0l-5.5 0 0.64 -2.57 4.29 0 0.46 -1.87 -4.29 0 0.58 -2.28 5.5 0 0.49 -1.96 -7.98 0 -2.65 10.64 7.98 0 0.49 -1.96zm5.29 -3.91l0.7 -2.84 2.65 0c0.52,0 0.67,0.05 0.73,0.12 0.12,0.14 0.18,0.43 -0.03,1.28 -0.21,0.87 -0.43,1.16 -0.61,1.31 -0.11,0.08 -0.27,0.14 -0.79,0.14l-2.65 0zm2.81 3.22c-0.24,1.06 -0.4,1.93 -0.46,2.65l2.51 0c0.08,-0.58 0.26,-1.55 0.53,-2.81 0.33,-1.55 -0.12,-1.86 -1.16,-2.08l0 -0.03c1.29,-0.21 1.98,-0.78 2.45,-2.69 0.4,-1.54 0.29,-2.1 -0.05,-2.54 -0.27,-0.36 -0.79,-0.49 -1.67,-0.49l-6.26 0 -2.65 10.64 2.48 0 1 -4.03 2.28 0c0.64,0 0.84,0.06 0.97,0.21 0.14,0.17 0.2,0.35 0.02,1.17zm15.98 -8l-2.55 0 -4.46 8.45 -0.2 0 -0.24 -8.45 -2.71 0 0.65 9.98c0.05,0.55 0.2,0.71 0.74,0.71l2.04 0c0.56,0 0.76,-0.17 1.08,-0.71l5.64 -9.98zm5.08 10.64l2.65 0 -0.82 -9.99c-0.05,-0.56 -0.14,-0.7 -0.68,-0.7l-2.05 0c-0.56,0 -0.7,0.12 -1.05,0.7l-5.78 9.99 2.48 0 1.44 -2.65 3.66 0 0.15 2.65zm-0.64 -8.45l0.2 0 0.21 3.95 -2.58 0 2.17 -3.95zm13.82 5.25c0.36,-1.44 0.33,-2.04 0.02,-2.45 -0.24,-0.32 -0.62,-0.47 -1.34,-0.55l-3.18 -0.33c-0.46,-0.06 -0.62,-0.08 -0.7,-0.18 -0.09,-0.12 -0.08,-0.35 0.06,-0.88 0.15,-0.58 0.26,-0.9 0.4,-1 0.11,-0.09 0.29,-0.12 0.68,-0.12l2.1 0c0.43,0 0.55,0.06 0.61,0.15 0.08,0.11 0.08,0.33 -0.14,1.29l2.34 0c0.44,-1.87 0.4,-2.45 0.08,-2.9 -0.26,-0.33 -0.76,-0.46 -1.67,-0.46l-3.68 0c-0.81,0 -1.35,0.18 -1.75,0.5 -0.61,0.49 -1.05,1.25 -1.38,2.6 -0.36,1.44 -0.32,2.01 -0.02,2.43 0.26,0.32 0.65,0.49 1.37,0.56l3.16 0.33c0.41,0.03 0.62,0.09 0.7,0.18 0.09,0.14 0.08,0.36 -0.06,0.9 -0.17,0.64 -0.29,0.96 -0.43,1.06 -0.12,0.11 -0.33,0.14 -0.78,0.14l-2.27 0c-0.44,0 -0.58,-0.05 -0.65,-0.14 -0.08,-0.11 -0.06,-0.35 0.17,-1.4l-2.34 0c-0.46,1.9 -0.46,2.55 -0.12,3 0.27,0.35 0.78,0.47 1.67,0.47l3.98 0c0.85,0 1.37,-0.18 1.78,-0.5 0.61,-0.49 1.02,-1.25 1.38,-2.71zm12.45 -7.44l-2.52 0 -3.45 4.39 -0.09 0 -1.26 -4.39 -2.65 0 2.11 6.75 -0.96 3.89 2.4 0 0.97 -3.91 5.44 -6.74zm3.48 0c-1.05,0 -1.57,0.15 -2.04,0.52 -0.76,0.56 -1.44,1.54 -2.25,4.8 -0.82,3.25 -0.62,4.23 -0.15,4.8 0.29,0.36 0.75,0.52 1.79,0.52l3.3 0c1.05,0 1.57,-0.15 2.04,-0.52 0.75,-0.58 1.43,-1.55 2.25,-4.8 0.81,-3.27 0.61,-4.24 0.15,-4.8 -0.29,-0.36 -0.74,-0.52 -1.79,-0.52l-3.3 0zm-1.75 5.32c0.67,-2.71 0.96,-3.09 1.13,-3.21 0.14,-0.11 0.29,-0.15 0.78,-0.15l2.02 0c0.49,0 0.61,0.05 0.68,0.15 0.11,0.12 0.21,0.5 -0.46,3.21 -0.67,2.69 -0.97,3.07 -1.14,3.21 -0.12,0.09 -0.27,0.15 -0.76,0.14l-2.02 0c-0.49,0 -0.61,-0.05 -0.7,-0.14 -0.11,-0.14 -0.21,-0.5 0.47,-3.21zm19.28 -5.32l-2.37 0 -1.67 6.71 -0.15 0 -1.82 -6.07c-0.15,-0.5 -0.36,-0.64 -0.94,-0.64l-2.33 0 -2.65 10.64 2.37 0 1.79 -7.21 0.15 0 2.02 6.57c0.15,0.49 0.38,0.64 0.94,0.64l2.01 0 2.65 -10.64z"/>
  <path class="fil1" d="M54.15 47.47l-8.74 0 -11.95 15.21 -0.32 0 -4.37 -15.21 -9.16 0 7.32 23.37 -3.32 13.48 8.32 0 3.37 -13.53 18.85 -23.32zm15.37 36.85l9.16 0 -2.84 -34.59c-0.16,-1.95 -0.47,-2.42 -2.37,-2.42l-7.11 0c-1.95,0 -2.42,0.42 -3.63,2.42l-20 34.59 8.58 0 5 -9.16 12.69 0 0.53 9.16zm-2.21 -29.27l0.68 0 0.74 13.69 -8.95 0 7.53 -13.69zm29.32 10l2.68 -10.9 8.32 0c1.95,0 2.53,0.16 2.79,0.47 0.42,0.47 0.74,1.37 -0.16,4.95 -0.9,3.58 -1.63,4.53 -2.32,5.05 -0.47,0.32 -1.05,0.42 -3,0.42l-8.32 0zm22.43 -5.37c1.74,-6.84 0.84,-9.21 -0.47,-10.74 -1,-1.11 -2.9,-1.47 -5.9,-1.47l-20.27 0 -9.16 36.85 8.58 0 3.11 -12.53 11.69 0c3,0 5.11,-0.42 6.63,-1.53 2,-1.47 4.16,-3.9 5.79,-10.58zm9.42 12.53l8 -22.69 0.53 -2.05 -9.27 0 -0.53 2.05 -2.74 22.69 4 0zm-7.32 3.69l-2.05 8.42 8.21 0 2.05 -8.42 -8.21 0z"/>
  <path class="fil2" d="M32.03 96.97c-0.79,3.26 -1.32,4.26 -1.58,4.47 -0.42,0.32 -0.95,0.37 -1.79,0.37l-0.95 0c-0.84,0 -1.37,-0.05 -1.58,-0.37 -0.16,-0.21 -0.16,-1.21 0.63,-4.47 0.84,-3.26 1.32,-4.26 1.58,-4.47 0.42,-0.32 0.95,-0.42 1.79,-0.42l0.95 0c0.84,0 1.37,0.11 1.58,0.42 0.16,0.21 0.21,1.21 -0.63,4.47zm5.32 0c1.37,-5.48 1.16,-7.32 0.21,-8.48 -0.63,-0.84 -1.53,-1.21 -3.74,-1.21l-4 0c-2.21,0 -3.32,0.37 -4.37,1.21 -1.47,1.16 -2.63,3 -4,8.48 -1.37,5.42 -1.16,7.32 -0.21,8.48 0.63,0.79 1.53,1.21 3.74,1.21l4 0c2.21,0 3.32,-0.42 4.37,-1.21 1.47,-1.16 2.63,-3.05 4,-8.48zm-12.37 27.32l16.48 -17.79 18.37 -19.37 -5.84 0 -16.48 17.79 -18.37 19.37 5.84 0zm27.16 -9.84c-0.79,3.26 -1.32,4.26 -1.58,4.47 -0.37,0.32 -0.95,0.37 -1.79,0.37l-0.95 0c-0.84,0 -1.32,-0.05 -1.58,-0.37 -0.16,-0.21 -0.16,-1.21 0.63,-4.47 0.84,-3.26 1.37,-4.26 1.63,-4.47 0.37,-0.32 0.95,-0.42 1.79,-0.42l0.95 0c0.84,0 1.32,0.11 1.58,0.42 0.16,0.21 0.16,1.21 -0.68,4.47zm5.32 0c1.37,-5.48 1.16,-7.32 0.26,-8.48 -0.63,-0.84 -1.58,-1.21 -3.79,-1.21l-4 0c-2.21,0 -3.26,0.37 -4.32,1.21 -1.53,1.16 -2.68,3 -4.05,8.48 -1.32,5.42 -1.11,7.32 -0.21,8.48 0.63,0.79 1.58,1.21 3.79,1.21l4 0c2.21,0 3.26,-0.42 4.32,-1.21 1.53,-1.16 2.68,-3.05 4,-8.48zm3.21 9.69l29.53 0 1.68 -6.9 -21.06 0 0.11 -0.32c0.47,-1.95 0.89,-2.74 1.68,-3.47 0.74,-0.68 1.9,-1.21 3.47,-1.68l9.58 -3.05c3.26,-1.05 5.58,-2.11 7.21,-3.74 1.79,-1.74 2.84,-3.74 3.79,-7.26 0.95,-3.47 1,-6.69 -0.37,-8.58 -0.89,-1.21 -2.68,-1.84 -5.84,-1.84l-10.27 0c-3.63,0 -5.95,0.58 -7.53,1.84 -2.11,1.68 -3.53,4.21 -5.11,10.32l8.32 0c0.79,-2.84 1.42,-4.21 2.05,-4.69 0.58,-0.47 1.26,-0.74 3.21,-0.74l3.95 0c1.95,0 2.74,0.11 3.11,0.63 0.37,0.47 0.37,1.53 0.05,2.74 -0.37,1.58 -0.84,2.53 -1.42,3.21 -0.47,0.58 -1.16,1.11 -3.58,1.84l-9.79 3.05c-3.11,1 -4.95,1.9 -6.69,3.53 -2.32,2.16 -3.47,4.47 -4.95,10.37l-1.16 4.74zm60.75 -30.06c2,0 2.53,0.21 2.9,0.58 0.47,0.53 0.95,1.95 -1.32,11.06 -2.26,9.11 -3.47,10.53 -4.16,11 -0.58,0.42 -1.21,0.58 -3.21,0.58l-4.79 0c-1.95,0 -2.53,-0.16 -2.84,-0.58 -0.47,-0.47 -0.95,-1.9 1.32,-11 2.26,-9.11 3.47,-10.53 4.16,-11.06 0.53,-0.37 1.21,-0.58 3.16,-0.58l4.79 0zm-5 -6.79c-4.05,0 -6.05,0.47 -8,1.95 -2.68,1.95 -5.42,5.79 -8.05,16.48 -2.68,10.63 -1.9,14.48 -0.16,16.48 1.21,1.42 3,1.95 7.05,1.95l8.58 0c4.05,0 6.11,-0.53 8.05,-1.95 2.63,-2 5.37,-5.84 8.05,-16.48 2.63,-10.69 1.84,-14.53 0.16,-16.48 -1.21,-1.47 -3.05,-1.95 -7.11,-1.95l-8.58 0z"/>
  <path class="fil2" d="M51.81 141.04l2.65 -10.64 -2.49 0 -2.65 10.64 2.49 0zm0.46 -11.68l2.42 0 0.5 -2.01 -2.42 0 -0.5 2.01zm13.82 1.03l-2.37 0 -1.67 6.71 -0.15 0 -1.82 -6.07c-0.15,-0.5 -0.36,-0.64 -0.94,-0.64l-2.33 0 -2.65 10.64 2.37 0 1.79 -7.21 0.15 0 2.02 6.57c0.15,0.49 0.38,0.64 0.94,0.64l2.01 0 2.65 -10.64zm2.27 0l-2.65 10.64 5.05 0c1.49,0 2.36,-0.23 3.12,-0.82 0.88,-0.68 1.54,-1.87 2.19,-4.5 0.65,-2.65 0.59,-3.82 0.06,-4.5 -0.47,-0.59 -1.23,-0.82 -2.72,-0.82l-5.05 0zm5.15 5.32c-0.55,2.2 -0.84,2.81 -1.22,3.09 -0.3,0.24 -0.62,0.3 -1.31,0.3l-2.33 0 1.69 -6.78 2.33 0c0.7,0 0.97,0.05 1.17,0.29 0.23,0.29 0.21,0.88 -0.33,3.1zm5.72 5.32l2.65 -10.64 -2.49 0 -2.65 10.64 2.49 0zm0.46 -11.68l2.42 0 0.5 -2.01 -2.42 0 -0.5 2.01zm5.82 5.81l0.7 -2.84 2.65 0c0.52,0 0.67,0.05 0.73,0.12 0.12,0.14 0.18,0.43 -0.03,1.28 -0.21,0.87 -0.43,1.16 -0.61,1.31 -0.11,0.08 -0.27,0.14 -0.79,0.14l-2.65 0zm2.81 3.22c-0.24,1.06 -0.4,1.93 -0.46,2.65l2.51 0c0.08,-0.58 0.26,-1.55 0.53,-2.81 0.33,-1.55 -0.12,-1.86 -1.16,-2.08l0 -0.03c1.29,-0.21 1.98,-0.78 2.45,-2.69 0.4,-1.54 0.29,-2.1 -0.05,-2.54 -0.27,-0.36 -0.79,-0.49 -1.67,-0.49l-6.26 0 -2.65 10.64 2.48 0 1 -4.03 2.28 0c0.64,0 0.84,0.06 0.97,0.21 0.14,0.17 0.2,0.35 0.02,1.17zm6.69 2.65l2.65 -10.64 -2.49 0 -2.65 10.64 2.49 0zm0.46 -11.68l2.42 0 0.5 -2.01 -2.42 0 -0.5 2.01zm16.41 1.03l-3.31 0c-0.46,0 -0.62,0.14 -0.85,0.58l-3.36 6.36 -0.18 0 -0.23 -6.36c-0.02,-0.44 -0.14,-0.58 -0.58,-0.58l-3.36 0 -2.65 10.64 2.33 0 1.95 -7.83 0.18 0 0.38 7.28c0.02,0.43 0.11,0.55 0.52,0.55l1.09 0c0.4,0 0.52,-0.12 0.76,-0.55l4 -7.21 0.2 0 -1.93 7.75 2.4 0 2.65 -10.64zm-34.58 12.79l-4.27 4.24 -0.67 0 1.06 -4.24 -2.48 0 -2.65 10.64 2.48 0 1.13 -4.52 0.68 0 2.07 4.52 2.92 0 -2.72 -5.63 5.2 -5.02 -2.75 0zm8.24 10.64l2.65 0 -0.82 -9.99c-0.05,-0.56 -0.14,-0.7 -0.68,-0.7l-2.05 0c-0.56,0 -0.7,0.12 -1.05,0.7l-5.78 9.99 2.48 0 1.44 -2.65 3.66 0 0.15 2.65zm-0.64 -8.45l0.2 0 0.21 3.95 -2.58 0 2.17 -3.95zm13.37 6.49l-5.5 0 7.3 -6.96 0.43 -1.72 -8.55 0 -0.49 1.98 5.38 0 -7.37 6.93 -0.43 1.73 8.74 0 0.49 -1.96zm8.13 1.96l2.65 0 -0.82 -9.99c-0.05,-0.56 -0.14,-0.7 -0.68,-0.7l-2.05 0c-0.56,0 -0.7,0.12 -1.05,0.7l-5.78 9.99 2.48 0 1.44 -2.65 3.66 0 0.15 2.65zm-0.64 -8.45l0.2 0 0.21 3.95 -2.58 0 2.17 -3.95zm16.54 -2.19l-2.37 0 -1.67 6.71 -0.15 0 -1.82 -6.07c-0.15,-0.5 -0.36,-0.64 -0.94,-0.64l-2.33 0 -2.65 10.64 2.37 0 1.79 -7.21 0.15 0 2.02 6.57c0.15,0.49 0.38,0.64 0.94,0.64l2.01 0 2.65 -10.64z"/>
 </g>
</svg>
