<?xml version="1.0" encoding="UTF-8"?>
<!DOCTYPE svg PUBLIC "-//W3C//DTD SVG 1.1//EN" "http://www.w3.org/Graphics/SVG/1.1/DTD/svg11.dtd">
<!-- Creator: CorelDRAW 2019 (64-Bit) -->
<svg xmlns="http://www.w3.org/2000/svg" xml:space="preserve" width="0.208339in" height="0.190972in" version="1.1" style="shape-rendering:geometricPrecision; text-rendering:geometricPrecision; image-rendering:optimizeQuality; fill-rule:evenodd; clip-rule:evenodd"
viewBox="0 0 2.95 2.7"
 xmlns:xlink="http://www.w3.org/1999/xlink">
 <defs>
  <style type="text/css">
   <![CDATA[
    .fil0 {fill:#00D5FF}
   ]]>
  </style>
 </defs>
 <g id="Layer_x0020_1">
  <metadata id="CorelCorpID_0Corel-Layer"/>
  <path class="fil0" d="M2.91 0.21c-0.07,-0.13 -0.2,-0.21 -0.34,-0.21l-1.19 0c-0.23,0 -0.45,0.1 -0.6,0.27l-0.58 0.65c-0.13,0.15 -0.2,0.33 -0.2,0.54l0.1 0.79 0 0c0.01,0.11 0.07,0.22 0.15,0.3 0.1,0.1 0.23,0.15 0.37,0.15l2.08 0c0.14,0 0.25,-0.11 0.25,-0.25l0 -2.07c0,-0.06 -0.01,-0.12 -0.04,-0.17zm-0.27 1.26l-2.33 0c-0.03,0 -0.06,-0.03 -0.06,-0.06 0,-0.15 0.07,-0.25 0.14,-0.33l0.58 -0.65c0.1,-0.12 0.26,-0.19 0.41,-0.19l1.19 0c0.05,0 0.1,0.03 0.12,0.08 0.01,0.02 0.01,0.04 0.01,0.06l0 1.03c0,0.03 -0.03,0.06 -0.06,0.06zm-0.43 0.31c0,-0.03 0.03,-0.06 0.06,-0.06l0.37 0c0.03,0 0.06,0.03 0.06,0.06 0,0.03 -0.03,0.06 -0.06,0.06l-0.37 0c-0.03,0 -0.06,-0.03 -0.06,-0.06zm0.37 -0.43l-2.21 0c0.01,-0.07 0.04,-0.12 0.1,-0.19l0.58 -0.65c0.08,-0.09 0.2,-0.14 0.32,-0.14l1.19 0c0.01,0 0.01,0 0.01,0.01l0 0.97zm-2.27 0.12l2.33 0c0.03,0 0.06,-0.03 0.06,-0.06l0 -1.03c0,-0.02 -0.01,-0.04 -0.01,-0.06 -0.02,-0.05 -0.07,-0.08 -0.12,-0.08l-1.19 0c-0.16,0 -0.31,0.07 -0.41,0.19l-0.58 0.65c-0.07,0.08 -0.14,0.18 -0.14,0.33 0,0.03 0.03,0.06 0.06,0.06z"/>
 </g>
</svg>
