<?xml version="1.0" encoding="UTF-8"?>
<!DOCTYPE svg PUBLIC "-//W3C//DTD SVG 1.1//EN" "http://www.w3.org/Graphics/SVG/1.1/DTD/svg11.dtd">
<!-- Creator: CorelDRAW 2019 (64-Bit) -->
<svg xmlns="http://www.w3.org/2000/svg" xml:space="preserve" width="0.17922in" height="0.208331in" version="1.1" style="shape-rendering:geometricPrecision; text-rendering:geometricPrecision; image-rendering:optimizeQuality; fill-rule:evenodd; clip-rule:evenodd"
viewBox="0 0 2.19 2.54"
 xmlns:xlink="http://www.w3.org/1999/xlink">
 <defs>
  <style type="text/css">
   <![CDATA[
    .fil0 {fill:#00D5FF}
   ]]>
  </style>
 </defs>
 <g id="Layer_x0020_1">
  <metadata id="CorelCorpID_0Corel-Layer"/>
  <g id="_2841236698384">
   <g>
    <path class="fil0" d="M1.17 1.99l0 -0.65 0.81 0 0 -0.79c0.12,-0.03 0.21,-0.14 0.21,-0.27 0,-0.15 -0.13,-0.28 -0.28,-0.28 -0.15,0 -0.28,0.13 -0.28,0.28 0,0.13 0.09,0.24 0.2,0.27l0 0.65 -0.66 0 0 -0.65c0.12,-0.03 0.21,-0.14 0.21,-0.27 0,-0.15 -0.13,-0.28 -0.28,-0.28 -0.15,0 -0.28,0.13 -0.28,0.28 0,0.13 0.09,0.24 0.2,0.27l0 0.65 -0.66 0 0 -0.65c0.12,-0.03 0.21,-0.14 0.21,-0.27 0,-0.15 -0.13,-0.28 -0.28,-0.28 -0.15,0 -0.28,0.13 -0.28,0.28 0,0.13 0.09,0.24 0.2,0.27l0 1.44c-0.12,0.03 -0.2,0.14 -0.2,0.27 0,0.15 0.13,0.28 0.28,0.28 0.15,0 0.28,-0.13 0.28,-0.28 0,-0.13 -0.09,-0.24 -0.21,-0.27l0 -0.65 0.66 0 0 0.65c-0.12,0.03 -0.2,0.14 -0.2,0.27 0,0.15 0.13,0.28 0.28,0.28 0.15,0 0.28,-0.13 0.28,-0.28 0,-0.13 -0.09,-0.24 -0.21,-0.27z"/>
    <path class="fil0" d="M1.91 1.98c-0.15,0 -0.28,0.13 -0.28,0.28 0,0.15 0.13,0.28 0.28,0.28 0.15,0 0.28,-0.13 0.28,-0.28 0,-0.15 -0.13,-0.28 -0.28,-0.28z"/>
   </g>
  </g>
 </g>
</svg>
