<?xml version="1.0" encoding="UTF-8"?>
<!DOCTYPE svg PUBLIC "-//W3C//DTD SVG 1.1//EN" "http://www.w3.org/Graphics/SVG/1.1/DTD/svg11.dtd">
<!-- Creator: CorelDRAW 2019 (64-Bit) -->
<svg xmlns="http://www.w3.org/2000/svg" xml:space="preserve" width="0.208335in" height="0.128276in" version="1.1" style="shape-rendering:geometricPrecision; text-rendering:geometricPrecision; image-rendering:optimizeQuality; fill-rule:evenodd; clip-rule:evenodd"
viewBox="0 0 2.95 1.82"
 xmlns:xlink="http://www.w3.org/1999/xlink">
 <defs>
  <style type="text/css">
   <![CDATA[
    .fil0 {fill:#00D5FF}
   ]]>
  </style>
 </defs>
 <g id="Layer_x0020_1">
  <metadata id="CorelCorpID_0Corel-Layer"/>
  <path class="fil0" d="M0.04 0l2.86 0c0.02,0 0.04,0.02 0.04,0.04l0 1.73c0,0.02 -0.02,0.04 -0.04,0.04l-2.86 0c-0.02,0 -0.04,-0.02 -0.04,-0.04l0 -1.73c0,-0.02 0.02,-0.04 0.04,-0.04zm1.46 0.37l0.73 0c0.01,0 0.01,0.01 0.01,0.01l0 0.11c0,0.01 -0.01,0.01 -0.01,0.01l-0.73 0c-0.01,0 -0.01,-0.01 -0.01,-0.01l0 -0.11c0,-0.01 0.01,-0.01 0.01,-0.01zm0 0.31l1.12 0c0.01,0 0.01,0.01 0.01,0.01l0 0.11c0,0.01 -0.01,0.01 -0.01,0.01l-1.12 0c-0.01,0 -0.01,-0.01 -0.01,-0.01l0 -0.11c0,-0.01 0.01,-0.01 0.01,-0.01zm0 0.31l1.05 0c0.01,0 0.01,0.01 0.01,0.01l0 0.11c0,0.01 -0.01,0.01 -0.01,0.01l-1.05 0c-0.01,0 -0.01,-0.01 -0.01,-0.01l0 -0.11c0,-0.01 0.01,-0.01 0.01,-0.01zm0 0.31l1.26 0c0.01,0 0.01,0.01 0.01,0.01l0 0.11c0,0.01 -0.01,0.01 -0.01,0.01l-1.26 0c-0.01,0 -0.01,-0.01 -0.01,-0.01l0 -0.11c0,-0.01 0.01,-0.01 0.01,-0.01zm-0.76 -0.99c0.1,0 0.18,0.04 0.24,0.1l0 0c0.06,0.06 0.1,0.15 0.1,0.24 0,0.03 -0,0.07 -0.01,0.1 0.02,0.02 0.04,0.03 0.06,0.05 0.08,0.08 0.12,0.18 0.12,0.3l0 0.38 -1.04 0 0 -0.38c0,-0.12 0.05,-0.22 0.12,-0.3 0.02,-0.02 0.04,-0.04 0.07,-0.05 -0.01,-0.03 -0.01,-0.06 -0.01,-0.09 0,-0.1 0.04,-0.18 0.1,-0.24l0 0c0.06,-0.06 0.15,-0.1 0.24,-0.1zm0.29 0.53c-0.01,0.02 -0.03,0.04 -0.05,0.06 -0.06,0.06 -0.15,0.1 -0.24,0.1 -0.1,0 -0.18,-0.04 -0.24,-0.1 -0.02,-0.02 -0.03,-0.04 -0.05,-0.06 -0.01,0.01 -0.03,0.02 -0.04,0.03 -0.06,0.06 -0.1,0.14 -0.1,0.23l0 0.28 0.85 0 0 -0.28c0,-0.09 -0.04,-0.17 -0.1,-0.23 -0.01,-0.01 -0.02,-0.02 -0.04,-0.03zm-0.11 -0.36c-0.05,-0.05 -0.11,-0.07 -0.18,-0.07 -0.07,0 -0.13,0.03 -0.18,0.07 -0.05,0.05 -0.07,0.11 -0.07,0.18 0,0.07 0.03,0.13 0.07,0.18 0.05,0.05 0.11,0.07 0.18,0.07 0.07,0 0.13,-0.03 0.18,-0.07 0.05,-0.05 0.07,-0.11 0.07,-0.18 0,-0.07 -0.03,-0.13 -0.07,-0.18z"/>
 </g>
</svg>
