<?xml version="1.0" encoding="UTF-8"?>
<!DOCTYPE svg PUBLIC "-//W3C//DTD SVG 1.1//EN" "http://www.w3.org/Graphics/SVG/1.1/DTD/svg11.dtd">
<!-- Creator: CorelDRAW 2019 (64-Bit) -->
<svg xmlns="http://www.w3.org/2000/svg" xml:space="preserve" width="0.174772in" height="0.21528in" version="1.1" style="shape-rendering:geometricPrecision; text-rendering:geometricPrecision; image-rendering:optimizeQuality; fill-rule:evenodd; clip-rule:evenodd"
viewBox="0 0 2.08 2.56"
 xmlns:xlink="http://www.w3.org/1999/xlink">
 <defs>
  <style type="text/css">
   <![CDATA[
    .str0 {stroke:#001430;stroke-width:0.08;stroke-miterlimit:2.61313}
    .fil0 {fill:#00D5FF}
   ]]>
  </style>
 </defs>
 <g id="Layer_x0020_1">
  <metadata id="CorelCorpID_0Corel-Layer"/>
  <path class="fil0 str0" d="M1.99 0.1c-0.04,-0.04 -0.09,-0.06 -0.15,-0.06l-0.16 0c-0.12,0 -0.23,0.09 -0.24,0.21l-0.01 0.06c-0.01,0.06 0,0.11 0.04,0.15 0.03,0.04 0.08,0.06 0.14,0.06l0.2 0c0.03,0 0.06,-0.01 0.08,-0.02l-0.02 0.18c-0.02,-0.01 -0.04,-0.01 -0.07,-0.01l-0.23 0c-0.1,0 -0.2,0.08 -0.22,0.18l-0.2 0.96 -0.96 -0.07c-0.05,-0 -0.1,0.01 -0.12,0.05 -0.03,0.03 -0.03,0.08 -0.02,0.12l0.11 0.44c0.02,0.1 0.12,0.17 0.22,0.17l0.81 0 0.01 0 0.41 0c0.1,0 0.19,-0.08 0.2,-0.18l0.16 -1.49c0,-0.01 0,-0.02 0,-0.03l0.05 -0.46c0.01,-0.02 0.01,-0.04 0.01,-0.06l0 -0.05c0,-0.06 -0.01,-0.11 -0.05,-0.15z"/>
 </g>
</svg>
