<?xml version="1.0" encoding="UTF-8"?>
<!DOCTYPE svg PUBLIC "-//W3C//DTD SVG 1.1//EN" "http://www.w3.org/Graphics/SVG/1.1/DTD/svg11.dtd">
<!-- Creator: CorelDRAW 2019 (64-Bit) -->
<svg xmlns="http://www.w3.org/2000/svg" xml:space="preserve" width="4.16666in" height="1.29242in" version="1.1" style="shape-rendering:geometricPrecision; text-rendering:geometricPrecision; image-rendering:optimizeQuality; fill-rule:evenodd; clip-rule:evenodd"
viewBox="0 0 524.67 162.74"
 xmlns:xlink="http://www.w3.org/1999/xlink">
 <defs>
  <style type="text/css">
   <![CDATA[
    .fil0 {fill:#1C1C1C}
    .fil2 {fill:#ED282B}
    .fil1 {fill:#F7F7F7}
    .fil3 {fill:#1C1C1C;fill-rule:nonzero}
   ]]>
  </style>
 </defs>
 <g id="Layer_x0020_1">
  <metadata id="CorelCorpID_0Corel-Layer"/>
  <g id="_1456874269152">
   <path class="fil0" d="M227.88 89.47l11.82 -23.98c1.92,-3.64 3.64,-8.04 5.36,-12.25l0.38 0c0.38,4.59 0.96,8.61 1.53,12.06l3.33 24.17 25.9 0 -13.92 -71.44 -22.39 0 -40.25 71.44 28.24 0zm-59.36 55.25l29.28 0 14.71 -27.23 -28.65 0 -15.34 27.23zm86.16 -27.23l3.44 19.79 14.08 -19.79 -17.52 0z"/>
   <path class="fil0" d="M128.77 144.71l26.22 0 5.97 -27.23 -26.3 0 -5.89 27.23zm41.67 -55.25l48.46 -70.86 -29.28 0 -33.49 53.58 -0.38 0 -18.56 -53.58 -26.79 0 26.93 70.86 33.12 0z"/>
   <path class="fil0" d="M59.36 89.47l11.82 -23.98c1.92,-3.64 3.64,-8.04 5.36,-12.25l0.38 0c0.38,4.59 0.96,8.61 1.53,12.06l3.33 24.17 25.9 0 -13.92 -71.44 -22.39 0 -40.25 71.44 28.24 0zm-59.36 55.25l29.28 0 14.71 -27.23 -28.65 0 -15.34 27.23zm86.16 -27.23l4.74 27.23 27.56 0 -5.31 -27.23 -26.99 0z"/>
   <path class="fil0" d="M261.15 144.71l120.85 0c-6.61,-6.4 -12.22,-13.82 -16.57,-22.01l-59.31 0 73.29 -104.1 -97.1 0 4.29 22.01 48.61 0 -74.06 104.1z"/>
   <path class="fil0" d="M29.96 109.1l2.74 0 -0.85 -10.78c-0.05,-0.61 -0.14,-0.75 -0.71,-0.75l-2.13 0c-0.58,0 -0.73,0.13 -1.09,0.75l-5.99 10.78 2.57 0 1.5 -2.85 3.8 0 0.16 2.85zm-0.66 -9.12l0.2 0 0.22 4.27 -2.68 0 2.26 -4.27zm9.83 2.79l0.72 -3.07 2.74 0c0.54,0 0.69,0.05 0.76,0.13 0.13,0.15 0.19,0.46 -0.03,1.38 -0.22,0.93 -0.44,1.25 -0.63,1.41 -0.11,0.08 -0.28,0.15 -0.82,0.15l-2.74 0zm2.92 3.48c-0.25,1.15 -0.41,2.08 -0.47,2.85l2.6 0c0.08,-0.62 0.27,-1.67 0.55,-3.04 0.35,-1.67 -0.13,-2 -1.2,-2.25l0 -0.03c1.34,-0.23 2.05,-0.84 2.54,-2.9 0.41,-1.66 0.3,-2.26 -0.05,-2.74 -0.28,-0.39 -0.82,-0.52 -1.74,-0.52l-6.5 0 -2.74 11.48 2.57 0 1.04 -4.35 2.36 0c0.66,0 0.87,0.06 1.01,0.23 0.14,0.18 0.21,0.38 0.02,1.26zm12.3 2.85l2.74 0 -0.85 -10.78c-0.05,-0.61 -0.14,-0.75 -0.71,-0.75l-2.13 0c-0.58,0 -0.73,0.13 -1.09,0.75l-5.99 10.78 2.57 0 1.5 -2.85 3.8 0 0.16 2.85zm-0.66 -9.12l0.2 0 0.22 4.27 -2.68 0 2.25 -4.27zm15.69 4.84l-2.47 0c-0.44,1.59 -0.65,1.87 -0.8,2 -0.13,0.1 -0.28,0.16 -0.79,0.15l-2.05 0c-0.5,0 -0.63,-0.05 -0.73,-0.15 -0.11,-0.15 -0.22,-0.54 0.49,-3.46 0.69,-2.92 0.99,-3.33 1.17,-3.46 0.14,-0.12 0.3,-0.16 0.8,-0.16l2.05 0c0.5,0 0.63,0.05 0.71,0.16 0.09,0.13 0.17,0.44 -0.13,1.87l2.46 0c0.49,-2.15 0.43,-3.02 -0.01,-3.59 -0.3,-0.39 -0.76,-0.56 -1.86,-0.56l-3.37 0c-1.09,0 -1.63,0.16 -2.11,0.56 -0.79,0.61 -1.5,1.66 -2.33,5.18 -0.85,3.51 -0.65,4.56 -0.16,5.18 0.3,0.39 0.77,0.56 1.86,0.56l3.38 0c1.1,0 1.62,-0.16 2.11,-0.56 0.72,-0.58 1.17,-1.41 1.8,-3.72zm-5.17 4.71l-1.4 0 -0.27 1.13 0.73 0c0.19,0 0.27,0.02 0.3,0.07 0.03,0.05 0.01,0.16 -0.02,0.29 -0.03,0.15 -0.06,0.25 -0.12,0.3 -0.06,0.05 -0.14,0.07 -0.33,0.07l-2.08 0 -0.1 0.39 0.81 0.84 1.7 0c0.5,0 0.85,-0.07 1.09,-0.26 0.24,-0.2 0.41,-0.46 0.6,-1.23 0.19,-0.77 0.16,-1.15 0.01,-1.35 -0.13,-0.18 -0.41,-0.25 -0.92,-0.25zm20.03 -11.91l-4.43 4.58 -0.69 0 1.1 -4.58 -2.57 0 -2.74 11.48 2.57 0 1.17 -4.87 0.71 0 2.14 4.87 3.03 0 -2.82 -6.07 5.39 -5.41 -2.85 0zm5.19 11.48l2.74 -11.48 -2.59 0 -2.74 11.48 2.59 0zm0.47 -12.6l2.51 0 0.52 -2.16 -2.51 0 -0.52 2.16zm7 6.27l0.73 -3.07 2.74 0c0.54,0 0.69,0.05 0.76,0.13 0.13,0.15 0.19,0.46 -0.03,1.38 -0.22,0.93 -0.44,1.25 -0.63,1.41 -0.11,0.08 -0.28,0.15 -0.82,0.15l-2.74 0zm2.92 3.48c-0.25,1.15 -0.41,2.08 -0.47,2.85l2.6 0c0.08,-0.62 0.27,-1.67 0.55,-3.04 0.35,-1.67 -0.13,-2 -1.2,-2.25l0 -0.03c1.34,-0.23 2.05,-0.84 2.54,-2.9 0.41,-1.66 0.3,-2.26 -0.05,-2.74 -0.28,-0.39 -0.82,-0.52 -1.73,-0.52l-6.5 0 -2.74 11.48 2.57 0 1.04 -4.35 2.37 0c0.66,0 0.87,0.06 1.01,0.23 0.14,0.18 0.21,0.38 0.02,1.26zm12.3 2.85l2.74 0 -0.85 -10.78c-0.05,-0.61 -0.14,-0.75 -0.71,-0.75l-2.13 0c-0.58,0 -0.73,0.13 -1.09,0.75l-5.99 10.78 2.57 0 1.5 -2.85 3.8 0 0.16 2.85zm-0.66 -9.12l0.2 0 0.22 4.27 -2.68 0 2.26 -4.27zm11.05 -2.36l-2.57 0 -2.74 11.48 7.82 0 0.5 -2.12 -5.25 0 2.24 -9.37zm12.1 11.48l2.74 0 -0.85 -10.78c-0.05,-0.61 -0.14,-0.75 -0.71,-0.75l-2.13 0c-0.58,0 -0.72,0.13 -1.09,0.75l-5.99 10.78 2.57 0 1.5 -2.85 3.8 0 0.16 2.85zm-0.66 -9.12l0.2 0 0.22 4.27 -2.68 0 2.26 -4.27zm20.8 -2.36l-3.44 0c-0.47,0 -0.65,0.15 -0.88,0.62l-3.48 6.86 -0.19 0 -0.24 -6.86c-0.02,-0.47 -0.14,-0.62 -0.6,-0.62l-3.49 0 -2.74 11.48 2.41 0 2.02 -8.45 0.19 0 0.39 7.86c0.01,0.46 0.11,0.59 0.54,0.59l1.13 0c0.41,0 0.54,-0.13 0.79,-0.59l4.15 -7.78 0.2 0 -2 8.37 2.49 0 2.74 -11.48zm7.63 11.48l2.74 0 -0.85 -10.78c-0.05,-0.61 -0.14,-0.75 -0.71,-0.75l-2.13 0c-0.58,0 -0.73,0.13 -1.09,0.75l-5.99 10.78 2.57 0 1.5 -2.85 3.8 0 0.16 2.85zm-0.66 -9.12l0.2 0 0.22 4.27 -2.68 0 2.26 -4.27zm30.16 -0.23l0.5 -2.13 -9.32 0 -0.5 2.13 3.36 0 -2.24 9.35 2.57 0 2.24 -9.35 3.39 0zm4.27 3.02l0.73 -3.07 2.74 0c0.54,0 0.69,0.05 0.76,0.13 0.13,0.15 0.19,0.46 -0.03,1.38 -0.22,0.93 -0.44,1.25 -0.63,1.41 -0.11,0.08 -0.28,0.15 -0.82,0.15l-2.74 0zm2.92 3.48c-0.25,1.15 -0.41,2.08 -0.47,2.85l2.6 0c0.08,-0.62 0.27,-1.67 0.55,-3.04 0.35,-1.67 -0.13,-2 -1.2,-2.25l0 -0.03c1.34,-0.23 2.05,-0.84 2.54,-2.9 0.41,-1.66 0.3,-2.26 -0.05,-2.74 -0.28,-0.39 -0.82,-0.52 -1.73,-0.52l-6.5 0 -2.74 11.48 2.57 0 1.04 -4.35 2.37 0c0.66,0 0.87,0.06 1.01,0.23 0.14,0.18 0.21,0.38 0.02,1.26zm12.3 2.85l2.74 0 -0.85 -10.78c-0.05,-0.61 -0.14,-0.75 -0.71,-0.75l-2.13 0c-0.58,0 -0.73,0.13 -1.09,0.75l-5.99 10.78 2.57 0 1.5 -2.85 3.8 0 0.16 2.85zm-0.66 -9.12l0.2 0 0.22 4.27 -2.68 0 2.26 -4.27zm18.12 -2.36l-2.46 0 -1.73 7.23 -0.16 0 -1.89 -6.54c-0.16,-0.54 -0.38,-0.69 -0.98,-0.69l-2.41 0 -2.74 11.48 2.46 0 1.86 -7.78 0.16 0 2.1 7.09c0.16,0.53 0.39,0.69 0.98,0.69l2.08 0 2.74 -11.48zm10.13 8.02c0.38,-1.56 0.35,-2.2 0.01,-2.64 -0.25,-0.34 -0.65,-0.51 -1.39,-0.59l-3.3 -0.36c-0.47,-0.07 -0.65,-0.08 -0.73,-0.2 -0.09,-0.13 -0.08,-0.38 0.06,-0.95 0.16,-0.62 0.27,-0.97 0.41,-1.08 0.11,-0.1 0.3,-0.13 0.71,-0.13l2.18 0c0.44,0 0.57,0.06 0.63,0.16 0.08,0.12 0.08,0.36 -0.14,1.39l2.43 0c0.46,-2.02 0.41,-2.64 0.08,-3.13 -0.27,-0.36 -0.79,-0.49 -1.73,-0.49l-3.82 0c-0.84,0 -1.4,0.2 -1.81,0.54 -0.63,0.53 -1.09,1.35 -1.43,2.8 -0.38,1.56 -0.33,2.17 -0.02,2.63 0.27,0.34 0.68,0.52 1.42,0.61l3.28 0.36c0.43,0.03 0.65,0.1 0.73,0.2 0.1,0.15 0.08,0.39 -0.06,0.97 -0.17,0.69 -0.3,1.03 -0.44,1.15 -0.13,0.12 -0.35,0.15 -0.8,0.15l-2.35 0c-0.46,0 -0.6,-0.05 -0.68,-0.15 -0.08,-0.12 -0.06,-0.38 0.17,-1.51l-2.43 0c-0.47,2.05 -0.47,2.76 -0.13,3.23 0.28,0.38 0.8,0.51 1.73,0.51l4.13 0c0.88,0 1.42,-0.2 1.84,-0.54 0.63,-0.53 1.06,-1.35 1.44,-2.92zm12.28 -5.92l0.51 -2.1 -7.9 0 -2.74 11.48 2.57 0 1.07 -4.49 3.99 0 0.47 -2.02 -3.99 0 0.69 -2.87 5.33 0zm9.13 7.27l-5.71 0 0.66 -2.77 4.45 0 0.47 -2.02 -4.45 0 0.6 -2.46 5.71 0 0.5 -2.12 -8.28 0 -2.74 11.48 8.28 0 0.5 -2.12zm6.45 -4.22l0.72 -3.07 2.75 0c0.54,0 0.69,0.05 0.76,0.13 0.13,0.15 0.19,0.46 -0.03,1.38 -0.22,0.93 -0.44,1.25 -0.63,1.41 -0.11,0.08 -0.28,0.15 -0.82,0.15l-2.74 0zm2.92 3.48c-0.25,1.15 -0.41,2.08 -0.47,2.85l2.6 0c0.08,-0.62 0.27,-1.67 0.55,-3.04 0.35,-1.67 -0.13,-2 -1.2,-2.25l0 -0.03c1.34,-0.23 2.05,-0.84 2.54,-2.9 0.41,-1.66 0.3,-2.26 -0.05,-2.74 -0.28,-0.39 -0.82,-0.52 -1.73,-0.52l-6.5 0 -2.74 11.48 2.57 0 1.04 -4.35 2.37 0c0.66,0 0.87,0.06 1.01,0.23 0.14,0.18 0.21,0.38 0.01,1.26zm-94.58 -3.63c0.05,0.09 0.03,0.24 -0.12,0.95l1.59 0c0.29,-1.24 0.31,-1.68 0.06,-2.02 -0.16,-0.24 -0.5,-0.35 -1.15,-0.35l-1.17 0c-0.76,0 -1.12,0.11 -1.44,0.37 -0.39,0.33 -0.59,0.77 -0.82,1.73 -0.14,0.59 -0.17,0.97 -0.12,1.28 -0.57,0.1 -0.93,0.28 -1.13,0.45 -0.42,0.34 -0.54,0.64 -0.78,1.65 -0.29,1.22 -0.26,1.68 -0.03,2.02 0.23,0.31 0.58,0.41 1.25,0.41l1.18 0c0.67,0 1.02,-0.25 1.48,-0.78l0.06 -0.07 0.1 0 0.52 0.85 1.83 0 0.33 -1.4 -0.87 0 -0.54 -0.84 0.89 -1 0.85 0 0.34 -1.39 -1.74 0 -1.04 1.23 -0.06 0 -0.58 -0.95c-0.21,-0.32 -0.31,-0.55 -0.35,-0.71 -0.02,-0.15 -0.01,-0.34 0.07,-0.68 0.11,-0.45 0.16,-0.63 0.27,-0.72 0.1,-0.08 0.2,-0.11 0.47,-0.11l0.28 0c0.21,0 0.33,0.02 0.39,0.09zm-3.51 4.07c0.12,-0.53 0.18,-0.65 0.28,-0.73 0.07,-0.07 0.2,-0.12 0.34,-0.16l0.27 -0.07 0.85 1.4 -0.24 0.27c-0.26,0.28 -0.4,0.34 -0.75,0.34l-0.28 0c-0.35,0 -0.49,-0.02 -0.55,-0.12 -0.07,-0.1 -0.07,-0.31 0.09,-0.93z"/>
   <path class="fil0" d="M443.3 0c44.94,0 81.37,36.43 81.37,81.37 0,44.94 -36.43,81.37 -81.37,81.37 -44.94,0 -81.37,-36.43 -81.37,-81.37 0,-44.94 36.43,-81.37 81.37,-81.37z"/>
   <path class="fil1" d="M442.43 108.55c-3.96,-0.8 -6.37,-4 -8.31,-6.17 -0.94,-1.06 -1.31,-1.75 -2.25,-2.47 -1.84,5.38 0.68,13.68 3.23,17.4 8.49,12.38 25.04,16.84 40.11,15.41 2.49,-0.24 7.95,-1.42 9.58,-1.35l-2.33 1.79c-13.13,8.22 -35.85,10.12 -49.76,3.45 -1.9,-0.91 -4.38,-3.33 -5.92,-3.55 1.75,6.07 10.72,9.46 13.62,11.65 -3.66,0.15 -11.81,-2.54 -14.39,-3.96 -4.05,-2.24 -7.07,-5.09 -9.43,-8.74 -4.35,-6.74 -6.48,-21.87 -2.13,-29.89 1.7,1.7 4.33,5.48 7.46,6.28 1.08,-9.72 0.79,-17.7 5.93,-24.84 3.1,-4.32 2.37,-4.41 7.63,-8.21 2.98,-2.15 6.65,-4.25 11.27,-4.68 -0.35,0.74 -6.11,5.61 -8.07,16.8 -1.68,9.6 1.9,14.77 3.75,21.1z"/>
   <path class="fil1" d="M432.62 24.06c-3.68,0.69 -7.38,1.74 -11.06,3.16 -4.22,1.64 -6.46,1.41 -11.25,2.12 -4.25,0.63 -6.91,1.93 -10.61,2.84 0.67,-1.08 0.85,-1.03 1.83,-1.84l6.62 -4.61c5.75,-3.56 12.09,-6.12 18.7,-7.71 1.58,2.11 3.34,4.17 5.43,5.78l0.33 0.26z"/>
   <path class="fil1" d="M494.72 110.55c2.14,-5.94 5.09,-6.9 7.49,-17.83 4.74,-21.64 -3.28,-42.87 -19.44,-55.78 -7.97,-6.37 -17.33,-10.82 -27.35,-12.79l0.09 -0.02 0.39 -0.3c2.02,-1.56 3.68,-3.55 5.24,-5.56 2.84,0.71 5.63,1.6 8.34,2.66 13.41,5.23 25.4,14.78 32.5,27.1 3.53,6.12 6.69,13.48 8.13,21.35 1.66,9.06 1.19,17.43 -0.96,26.18 -0.89,3.62 -1.84,8.32 -4.33,10.24 -1.7,1.31 -7.82,4.39 -10.1,4.75z"/>
   <path class="fil2" d="M450.79 58.26l-7.72 0.8c-0.9,-2.04 -3.14,-5.44 -4.98,-6.73l-1.88 2.01c1.11,1.14 2.91,2.89 3.1,5.08 -5.63,1.33 -12.97,0.52 -18.48,-0.98 -6.11,-1.67 -9.17,-4.6 -16.34,-3.71 -8.33,1.04 -15.37,5.07 -21.49,9.69 -1.97,1.48 -3.3,4.11 -5.24,5.04 0.76,-8.16 8.22,-15.85 16.03,-19.28 4.72,-2.07 18.38,-4.91 22.71,-3.12 2.06,0.85 2.56,3.54 5.24,3.88 -0.46,-3.11 -0.05,-3.53 0.06,-6.28 -10.02,-0.76 -19.41,-2.61 -29.03,1.13 -3.12,1.21 -4.95,2.65 -7.29,3.67 1.12,-4.66 9.56,-10.53 13.94,-12.81 14.5,-7.55 29.09,-5.19 40.4,5.51 2.64,2.5 10.24,11.01 10.98,16.11zm-23.06 -12.86c-0.77,2.28 -2.12,4.25 0.53,5.57 3.25,1.63 3.78,-0.89 5.08,-2.58 5.35,0.9 -0.13,7.42 -5.73,5.06 -4.7,-1.98 -3.96,-6.63 -3.04,-7.85 0.82,-1.09 1.56,-0.61 3.15,-0.2z"/>
   <path class="fil1" d="M432.55 63.53c-2.63,1.42 -20.08,3.17 -34.03,13.45 -8.81,6.49 -10.6,7.03 -17.8,17.37l-4.64 7.4c-0.59,-9.95 -1.65,-13.26 2.28,-22.12 2.87,-6.47 7.05,-10.87 11.95,-14.28 3.6,-2.51 13.43,-7.6 19.59,-5.94 14.15,3.81 7.97,2.51 22.65,4.11z"/>
   <path class="fil1" d="M469.71 81.54c2.09,-8.97 1.39,-11.25 -8.93,-12.97 -16.01,-2.67 -13.71,-0.3 -22.75,-0.53 2.98,-4 11.55,-5.38 17.8,-6.49l-1.59 -17.75c6.67,2.25 16.5,10.02 19.8,14.34 3.79,4.95 4.53,14.11 0.43,19.34 -0.92,1.17 -3.26,3.37 -4.76,4.05z"/>
   <path class="fil1" d="M492.78 101.97c-8.43,11.25 -45,15.24 -47.14,-12.08 -0.51,-6.46 3.18,-16 7.47,-17.45 -1.56,5.48 -0.72,10.91 1.32,15.81 1,2.4 2.21,4.15 3.63,5.97 4.29,5.49 10.48,9.43 18.29,10.47 2.94,0.4 5.99,0.26 8.9,-0.28 3.04,-0.57 4.89,-1.85 7.54,-2.44z"/>
   <path class="fil1" d="M462.15 44.13c-5.32,-2.02 -4.65,-2.93 -12.93,-5.07 0.09,1.28 1.3,3.99 1.71,5.68 0.51,2.08 1.11,4.72 0.83,6.88 -5.5,-6.41 -6.37,-11.63 -16.49,-17.59 -2.61,-1.54 -4.86,-2.26 -7.73,-3.68 10.93,-2.51 31.92,7.67 34.6,13.79z"/>
   <path class="fil1" d="M450.77 118.19c-1.57,-2.28 -2.81,-2.4 -4.21,-5.81 8.13,2.02 13.76,6.21 28.25,5.64 5.21,-0.2 10.47,-0.72 15.11,-1.94 4.68,-1.23 8.02,-3.23 12.4,-4.46 -1.18,3.23 -8.77,9 -12.79,10.88 -17.95,8.43 -48.86,3.72 -52.94,-11.47 1.76,0.83 4.41,2.98 6.25,4.18 2.06,1.34 4.83,2.79 7.93,2.97z"/>
   <path class="fil1" d="M417.72 98.98c-0,0 -0.06,0.82 -1.06,-0.63l-2.31 -5.31c-7.39,5.23 -9.65,25.36 -6.57,36.45 0.58,2.09 1.18,3.53 2.2,5.44 0.99,1.86 2.11,3.05 2.89,4.93 -18.56,-7.9 -20.46,-23.36 -24.53,-33.59 -1.99,1.47 -2.93,3.87 -3.55,6.76 -3.46,-4.93 1.72,-15.48 3.93,-18.97 2.96,-4.68 8,-9.51 12.02,-12.7 7.77,-6.18 24.2,-13.21 35.48,-14.87 -2.8,3.63 -10.54,7.48 -16.44,21.76 -2.43,5.87 -1.27,8.11 -2.05,10.73z"/>
   <path class="fil1" d="M426.43 45.78c0,0 -2.09,1.99 0.3,4.79 1.57,1.38 3.19,1.94 4.9,1.26 1.36,-0.53 2.34,-1.3 2.46,-2.61 0.11,-1.31 -6.64,-5.07 -7.66,-3.45z"/>
   <g>
    <path class="fil3" d="M503.82 0c2.01,0 3.84,0.82 5.16,2.14 1.32,1.32 2.14,3.15 2.14,5.16 0,2.01 -0.82,3.84 -2.14,5.16 -1.32,1.32 -3.15,2.14 -5.16,2.14 -2.01,0 -3.84,-0.82 -5.16,-2.14 -1.32,-1.32 -2.14,-3.15 -2.14,-5.16 0,-2.01 0.82,-3.84 2.14,-5.16 1.32,-1.32 3.15,-2.14 5.16,-2.14zm4.43 2.87c-1.13,-1.13 -2.7,-1.83 -4.43,-1.83 -1.73,0 -3.3,0.7 -4.43,1.83 -1.13,1.13 -1.83,2.7 -1.83,4.43 0,1.73 0.7,3.3 1.83,4.43 1.13,1.13 2.7,1.83 4.43,1.83 1.73,0 3.3,-0.7 4.43,-1.83 1.13,-1.13 1.83,-2.7 1.83,-4.43 0,-1.73 -0.7,-3.3 -1.83,-4.43z"/>
    <path class="fil3" d="M501.08 11l0 -7.41 3.15 0c0.79,0 1.37,0.07 1.73,0.2 0.36,0.13 0.65,0.37 0.86,0.71 0.22,0.34 0.32,0.73 0.32,1.17 0,0.56 -0.16,1.01 -0.49,1.38 -0.33,0.36 -0.81,0.59 -1.46,0.69 0.32,0.19 0.59,0.39 0.8,0.62 0.21,0.23 0.49,0.63 0.85,1.2l0.9 1.44 -1.79 0 -1.07 -1.62c-0.39,-0.58 -0.65,-0.94 -0.79,-1.09 -0.14,-0.15 -0.29,-0.25 -0.45,-0.31 -0.16,-0.06 -0.41,-0.08 -0.76,-0.08l-0.3 0 0 3.09 -1.5 0zm1.5 -4.27l1.11 0c0.72,0 1.16,-0.03 1.34,-0.09 0.18,-0.06 0.32,-0.17 0.42,-0.31 0.1,-0.15 0.15,-0.33 0.15,-0.56 0,-0.25 -0.07,-0.45 -0.2,-0.6 -0.13,-0.15 -0.32,-0.25 -0.56,-0.29 -0.12,-0.02 -0.49,-0.03 -1.09,-0.03l-1.17 0 0 1.88z"/>
   </g>
  </g>
 </g>
</svg>
