<?xml version="1.0" encoding="UTF-8"?>
<!DOCTYPE svg PUBLIC "-//W3C//DTD SVG 1.1//EN" "http://www.w3.org/Graphics/SVG/1.1/DTD/svg11.dtd">
<!-- Creator: CorelDRAW 2019 (64-Bit) -->
<svg xmlns="http://www.w3.org/2000/svg" xml:space="preserve" width="3in" height="0.930539in" version="1.1" style="shape-rendering:geometricPrecision; text-rendering:geometricPrecision; image-rendering:optimizeQuality; fill-rule:evenodd; clip-rule:evenodd"
viewBox="0 0 261.12 80.99"
 xmlns:xlink="http://www.w3.org/1999/xlink">
 <defs>
  <style type="text/css">
   <![CDATA[
    .fil1 {fill:#1C1C1C}
    .fil2 {fill:#ED282B}
    .fil0 {fill:#FAFAFA}
    .fil3 {fill:#EDEDEE;fill-rule:nonzero}
   ]]>
  </style>
 </defs>
 <g id="Layer_x0020_1">
  <metadata id="CorelCorpID_0Corel-Layer"/>
  <path class="fil0" d="M113.41 44.53l5.88 -11.93c0.95,-1.81 1.81,-4 2.67,-6.1l0.19 0c0.19,2.29 0.48,4.29 0.76,6l1.66 12.03 12.89 0 -6.93 -35.55 -11.14 0 -20.03 35.55 14.05 0zm-29.54 27.49l14.57 0 7.32 -13.55 -14.26 0 -7.64 13.55zm42.88 -13.55l1.71 9.85 7.01 -9.85 -8.72 0z"/>
  <path class="fil0" d="M64.09 72.02l13.05 0 2.97 -13.55 -13.09 0 -2.93 13.55zm20.74 -27.49l24.12 -35.27 -14.57 0 -16.67 26.67 -0.19 0 -9.24 -26.67 -13.33 0 13.4 35.27 16.48 0z"/>
  <path class="fil0" d="M29.54 44.53l5.88 -11.93c0.95,-1.81 1.81,-4 2.67,-6.1l0.19 0c0.19,2.29 0.48,4.29 0.76,6l1.66 12.03 12.89 0 -6.93 -35.55 -11.14 0 -20.03 35.55 14.05 0zm-29.54 27.49l14.57 0 7.32 -13.55 -14.26 0 -7.64 13.55zm42.88 -13.55l2.36 13.55 13.71 0 -2.64 -13.55 -13.43 0z"/>
  <path class="fil0" d="M129.97 72.02l60.14 0c-3.29,-3.18 -6.08,-6.88 -8.25,-10.95l-29.52 0 36.48 -51.81 -48.33 0 2.13 10.95 24.19 0 -36.86 51.81z"/>
  <path class="fil0" d="M14.91 54.3l1.37 0 -0.42 -5.36c-0.02,-0.3 -0.07,-0.38 -0.35,-0.38l-1.06 0c-0.29,0 -0.36,0.06 -0.54,0.38l-2.98 5.36 1.28 0 0.75 -1.42 1.89 0 0.08 1.42zm-0.33 -4.54l0.1 0 0.11 2.12 -1.33 0 1.12 -2.12zm4.89 1.39l0.36 -1.53 1.37 0c0.27,0 0.35,0.02 0.38,0.07 0.06,0.07 0.09,0.23 -0.02,0.69 -0.11,0.47 -0.22,0.62 -0.31,0.7 -0.05,0.04 -0.14,0.07 -0.41,0.07l-1.36 0zm1.45 1.73c-0.13,0.57 -0.2,1.04 -0.23,1.42l1.29 0c0.04,-0.31 0.13,-0.83 0.27,-1.51 0.17,-0.83 -0.06,-1 -0.6,-1.12l0 -0.02c0.67,-0.11 1.02,-0.42 1.26,-1.45 0.2,-0.82 0.15,-1.13 -0.02,-1.36 -0.14,-0.2 -0.41,-0.26 -0.86,-0.26l-3.23 0 -1.37 5.71 1.28 0 0.52 -2.16 1.18 0c0.33,0 0.43,0.03 0.5,0.11 0.07,0.09 0.1,0.19 0.01,0.63zm6.12 1.42l1.36 0 -0.42 -5.36c-0.02,-0.3 -0.07,-0.38 -0.35,-0.38l-1.06 0c-0.29,0 -0.36,0.06 -0.54,0.38l-2.98 5.36 1.28 0 0.75 -1.42 1.89 0 0.08 1.42zm-0.33 -4.54l0.1 0 0.11 2.12 -1.33 0 1.12 -2.12zm7.81 2.41l-1.23 0c-0.22,0.79 -0.32,0.93 -0.4,1 -0.06,0.05 -0.14,0.08 -0.39,0.07l-1.02 0c-0.25,0 -0.31,-0.03 -0.36,-0.07 -0.06,-0.07 -0.11,-0.27 0.24,-1.72 0.35,-1.45 0.49,-1.66 0.58,-1.72 0.07,-0.06 0.15,-0.08 0.4,-0.08l1.02 0c0.25,0 0.31,0.02 0.35,0.08 0.05,0.07 0.09,0.22 -0.06,0.93l1.22 0c0.24,-1.07 0.21,-1.5 -0.01,-1.79 -0.15,-0.2 -0.38,-0.28 -0.93,-0.28l-1.68 0c-0.54,0 -0.81,0.08 -1.05,0.28 -0.39,0.3 -0.75,0.82 -1.16,2.58 -0.42,1.75 -0.32,2.27 -0.08,2.58 0.15,0.2 0.38,0.28 0.93,0.28l1.68 0c0.55,0 0.81,-0.08 1.05,-0.28 0.36,-0.29 0.58,-0.7 0.89,-1.85zm-2.57 2.34l-0.7 0 -0.13 0.56 0.36 0c0.09,0 0.13,0.01 0.15,0.03 0.02,0.02 0.01,0.08 -0.01,0.15 -0.02,0.07 -0.03,0.12 -0.06,0.15 -0.03,0.02 -0.07,0.03 -0.16,0.03l-1.04 0 -0.05 0.2 0.4 0.42 0.85 0c0.25,0 0.42,-0.03 0.54,-0.13 0.12,-0.1 0.2,-0.23 0.3,-0.61 0.09,-0.38 0.08,-0.57 0.01,-0.67 -0.06,-0.09 -0.2,-0.12 -0.46,-0.12zm9.97 -5.93l-2.2 2.28 -0.35 0 0.55 -2.28 -1.28 0 -1.36 5.71 1.28 0 0.58 -2.43 0.35 0 1.07 2.43 1.51 0 -1.4 -3.02 2.68 -2.69 -1.42 0zm2.58 5.71l1.37 -5.71 -1.29 0 -1.37 5.71 1.29 0zm0.24 -6.27l1.25 0 0.26 -1.08 -1.25 0 -0.26 1.08zm3.48 3.12l0.36 -1.53 1.37 0c0.27,0 0.35,0.02 0.38,0.07 0.06,0.07 0.09,0.23 -0.02,0.69 -0.11,0.47 -0.22,0.62 -0.31,0.7 -0.05,0.04 -0.14,0.07 -0.41,0.07l-1.37 0zm1.45 1.73c-0.13,0.57 -0.2,1.04 -0.24,1.42l1.29 0c0.04,-0.31 0.13,-0.83 0.28,-1.51 0.17,-0.83 -0.06,-1 -0.6,-1.12l0 -0.02c0.67,-0.11 1.02,-0.42 1.26,-1.45 0.2,-0.82 0.15,-1.13 -0.02,-1.36 -0.14,-0.2 -0.41,-0.26 -0.86,-0.26l-3.23 0 -1.36 5.71 1.28 0 0.52 -2.16 1.18 0c0.33,0 0.43,0.03 0.5,0.11 0.07,0.09 0.1,0.19 0.01,0.63zm6.12 1.42l1.37 0 -0.42 -5.36c-0.02,-0.3 -0.07,-0.38 -0.35,-0.38l-1.06 0c-0.29,0 -0.36,0.06 -0.54,0.38l-2.98 5.36 1.28 0 0.75 -1.42 1.89 0 0.08 1.42zm-0.33 -4.54l0.1 0 0.11 2.12 -1.33 0 1.12 -2.12zm5.5 -1.18l-1.28 0 -1.37 5.71 3.89 0 0.25 -1.05 -2.61 0 1.11 -4.66zm6.02 5.71l1.36 0 -0.42 -5.36c-0.02,-0.3 -0.07,-0.38 -0.35,-0.38l-1.06 0c-0.29,0 -0.36,0.06 -0.54,0.38l-2.98 5.36 1.28 0 0.75 -1.42 1.89 0 0.08 1.42zm-0.33 -4.54l0.1 0 0.11 2.12 -1.33 0 1.12 -2.12zm10.35 -1.18l-1.71 0c-0.24,0 -0.32,0.07 -0.44,0.31l-1.73 3.41 -0.09 0 -0.12 -3.41c-0.01,-0.24 -0.07,-0.31 -0.3,-0.31l-1.73 0 -1.36 5.71 1.2 0 1.01 -4.2 0.09 0 0.2 3.91c0.01,0.23 0.05,0.29 0.27,0.29l0.56 0c0.2,0 0.27,-0.07 0.39,-0.29l2.06 -3.87 0.1 0 -1 4.16 1.24 0 1.37 -5.71zm3.8 5.71l1.37 0 -0.42 -5.36c-0.02,-0.3 -0.07,-0.38 -0.35,-0.38l-1.06 0c-0.29,0 -0.36,0.06 -0.54,0.38l-2.98 5.36 1.28 0 0.75 -1.42 1.89 0 0.08 1.42zm-0.33 -4.54l0.1 0 0.11 2.12 -1.33 0 1.12 -2.12zm15.01 -0.11l0.25 -1.06 -4.64 0 -0.25 1.06 1.67 0 -1.11 4.65 1.28 0 1.12 -4.65 1.69 0zm2.13 1.5l0.36 -1.53 1.37 0c0.27,0 0.35,0.02 0.38,0.07 0.06,0.07 0.09,0.23 -0.02,0.69 -0.11,0.47 -0.22,0.62 -0.31,0.7 -0.05,0.04 -0.14,0.07 -0.41,0.07l-1.37 0zm1.45 1.73c-0.13,0.57 -0.2,1.04 -0.23,1.42l1.29 0c0.04,-0.31 0.13,-0.83 0.28,-1.51 0.17,-0.83 -0.06,-1 -0.6,-1.12l0 -0.02c0.67,-0.11 1.02,-0.42 1.26,-1.45 0.2,-0.82 0.15,-1.13 -0.02,-1.36 -0.14,-0.2 -0.41,-0.26 -0.86,-0.26l-3.23 0 -1.36 5.71 1.28 0 0.52 -2.16 1.18 0c0.33,0 0.43,0.03 0.5,0.11 0.07,0.09 0.1,0.19 0.01,0.63zm6.12 1.42l1.37 0 -0.42 -5.36c-0.02,-0.3 -0.07,-0.38 -0.35,-0.38l-1.06 0c-0.29,0 -0.36,0.06 -0.54,0.38l-2.98 5.36 1.28 0 0.75 -1.42 1.89 0 0.08 1.42zm-0.33 -4.54l0.1 0 0.11 2.12 -1.33 0 1.12 -2.12zm9.02 -1.18l-1.22 0 -0.86 3.6 -0.08 0 -0.94 -3.26c-0.08,-0.27 -0.19,-0.34 -0.49,-0.34l-1.2 0 -1.37 5.71 1.22 0 0.93 -3.87 0.08 0 1.04 3.53c0.08,0.26 0.2,0.34 0.49,0.34l1.04 0 1.37 -5.71zm5.04 3.99c0.19,-0.78 0.17,-1.09 0.01,-1.31 -0.12,-0.17 -0.32,-0.25 -0.69,-0.29l-1.64 -0.18c-0.24,-0.03 -0.32,-0.04 -0.36,-0.1 -0.05,-0.07 -0.04,-0.19 0.03,-0.47 0.08,-0.31 0.13,-0.48 0.2,-0.54 0.06,-0.05 0.15,-0.07 0.35,-0.07l1.08 0c0.22,0 0.28,0.03 0.31,0.08 0.04,0.06 0.04,0.18 -0.07,0.69l1.21 0c0.23,-1 0.2,-1.31 0.04,-1.56 -0.13,-0.18 -0.39,-0.25 -0.86,-0.25l-1.9 0c-0.42,0 -0.7,0.1 -0.9,0.27 -0.31,0.26 -0.54,0.67 -0.71,1.4 -0.19,0.78 -0.16,1.08 -0.01,1.31 0.13,0.17 0.34,0.26 0.71,0.3l1.63 0.18c0.21,0.02 0.32,0.05 0.36,0.1 0.05,0.07 0.04,0.2 -0.03,0.48 -0.09,0.34 -0.15,0.51 -0.22,0.57 -0.06,0.06 -0.17,0.07 -0.4,0.07l-1.17 0c-0.23,0 -0.3,-0.02 -0.34,-0.07 -0.04,-0.06 -0.03,-0.19 0.09,-0.75l-1.21 0c-0.24,1.02 -0.24,1.37 -0.06,1.61 0.14,0.19 0.4,0.25 0.86,0.25l2.06 0c0.44,0 0.71,-0.1 0.92,-0.27 0.31,-0.26 0.53,-0.67 0.71,-1.45zm6.11 -2.95l0.25 -1.04 -3.93 0 -1.36 5.71 1.28 0 0.53 -2.24 1.99 0 0.24 -1 -1.98 0 0.35 -1.43 2.65 0zm4.54 3.62l-2.84 0 0.33 -1.38 2.21 0 0.23 -1 -2.21 0 0.3 -1.23 2.84 0 0.25 -1.05 -4.12 0 -1.37 5.71 4.12 0 0.25 -1.05zm3.21 -2.1l0.36 -1.53 1.37 0c0.27,0 0.35,0.02 0.38,0.07 0.06,0.07 0.09,0.23 -0.02,0.69 -0.11,0.47 -0.22,0.62 -0.31,0.7 -0.05,0.04 -0.14,0.07 -0.41,0.07l-1.36 0zm1.45 1.73c-0.13,0.57 -0.2,1.04 -0.24,1.42l1.29 0c0.04,-0.31 0.13,-0.83 0.27,-1.51 0.17,-0.83 -0.06,-1 -0.6,-1.12l0 -0.02c0.67,-0.11 1.02,-0.42 1.26,-1.45 0.2,-0.82 0.15,-1.13 -0.02,-1.36 -0.14,-0.2 -0.41,-0.26 -0.86,-0.26l-3.23 0 -1.36 5.71 1.28 0 0.52 -2.16 1.18 0c0.33,0 0.43,0.03 0.5,0.11 0.07,0.09 0.1,0.19 0.01,0.63zm-47.07 -1.81c0.03,0.05 0.02,0.12 -0.06,0.47l0.79 0c0.15,-0.62 0.16,-0.84 0.03,-1.01 -0.08,-0.12 -0.25,-0.17 -0.57,-0.17l-0.58 0c-0.38,0 -0.56,0.06 -0.72,0.19 -0.19,0.16 -0.29,0.38 -0.41,0.86 -0.07,0.29 -0.09,0.48 -0.06,0.64 -0.28,0.05 -0.47,0.14 -0.56,0.23 -0.21,0.17 -0.27,0.32 -0.39,0.82 -0.15,0.6 -0.13,0.84 -0.02,1 0.11,0.15 0.29,0.2 0.62,0.2l0.59 0c0.34,0 0.51,-0.12 0.74,-0.39l0.03 -0.03 0.05 0 0.26 0.42 0.91 0 0.16 -0.7 -0.43 0 -0.27 -0.42 0.44 -0.5 0.42 0 0.17 -0.69 -0.86 0 -0.52 0.61 -0.03 0 -0.29 -0.47c-0.1,-0.16 -0.15,-0.28 -0.17,-0.35 -0.01,-0.07 -0,-0.17 0.03,-0.34 0.05,-0.22 0.08,-0.32 0.13,-0.36 0.05,-0.04 0.1,-0.06 0.23,-0.06l0.14 0c0.1,0 0.16,0.01 0.19,0.05zm-1.75 2.03c0.06,-0.26 0.09,-0.32 0.14,-0.36 0.04,-0.03 0.1,-0.06 0.17,-0.08l0.14 -0.03 0.42 0.7 -0.12 0.13c-0.13,0.14 -0.2,0.17 -0.37,0.17l-0.14 0c-0.17,0 -0.24,-0.01 -0.28,-0.06 -0.03,-0.05 -0.03,-0.16 0.04,-0.47z"/>
  <path class="fil0" d="M220.62 0c22.37,0 40.5,18.13 40.5,40.5 0,22.37 -18.13,40.5 -40.5,40.5 -22.37,0 -40.5,-18.13 -40.5,-40.5 0,-22.37 18.13,-40.5 40.5,-40.5z"/>
  <path class="fil1" d="M220.19 54.02c-1.97,-0.4 -3.17,-1.99 -4.14,-3.07 -0.47,-0.53 -0.65,-0.87 -1.12,-1.23 -0.91,2.68 0.34,6.81 1.61,8.66 4.23,6.16 12.46,8.38 19.96,7.67 1.24,-0.12 3.96,-0.71 4.77,-0.67l-1.16 0.89c-6.54,4.09 -17.84,5.03 -24.76,1.72 -0.94,-0.45 -2.18,-1.66 -2.95,-1.77 0.87,3.02 5.34,4.71 6.78,5.8 -1.82,0.08 -5.88,-1.27 -7.16,-1.97 -2.02,-1.11 -3.52,-2.54 -4.69,-4.35 -2.17,-3.35 -3.23,-10.88 -1.06,-14.88 0.85,0.84 2.16,2.73 3.71,3.13 0.54,-4.84 0.39,-8.81 2.95,-12.36 1.55,-2.15 1.18,-2.2 3.8,-4.09 1.48,-1.07 3.31,-2.11 5.61,-2.33 -0.18,0.37 -3.04,2.79 -4.02,8.36 -0.84,4.78 0.95,7.35 1.86,10.5z"/>
  <path class="fil1" d="M215.31 11.98c-1.83,0.35 -3.67,0.87 -5.5,1.57 -2.1,0.81 -3.22,0.7 -5.6,1.06 -2.12,0.32 -3.44,0.96 -5.28,1.42 0.33,-0.54 0.42,-0.51 0.91,-0.92l3.3 -2.29c2.86,-1.77 6.02,-3.05 9.31,-3.84 0.79,1.05 1.66,2.07 2.7,2.87l0.17 0.13z"/>
  <path class="fil1" d="M246.21 55.02c1.06,-2.96 2.54,-3.43 3.73,-8.88 2.36,-10.77 -1.63,-21.33 -9.67,-27.76 -3.97,-3.17 -8.63,-5.39 -13.61,-6.36l0.05 -0.01 0.2 -0.15c1,-0.78 1.83,-1.77 2.61,-2.77 1.41,0.35 2.8,0.8 4.15,1.32 6.67,2.6 12.64,7.35 16.18,13.49 1.76,3.04 3.33,6.71 4.04,10.63 0.83,4.51 0.59,8.67 -0.48,13.03 -0.44,1.8 -0.91,4.14 -2.15,5.1 -0.85,0.65 -3.89,2.19 -5.03,2.37z"/>
  <path class="fil2" d="M224.35 28.99l-3.84 0.4c-0.45,-1.02 -1.56,-2.71 -2.48,-3.35l-0.94 1c0.55,0.57 1.45,1.44 1.55,2.53 -2.8,0.66 -6.45,0.26 -9.2,-0.49 -3.04,-0.83 -4.57,-2.29 -8.13,-1.85 -4.14,0.52 -7.65,2.52 -10.7,4.82 -0.98,0.74 -1.64,2.05 -2.61,2.51 0.38,-4.06 4.09,-7.89 7.98,-9.59 2.35,-1.03 9.15,-2.44 11.3,-1.55 1.02,0.42 1.28,1.76 2.61,1.93 -0.23,-1.55 -0.02,-1.75 0.03,-3.13 -4.99,-0.38 -9.66,-1.3 -14.45,0.56 -1.55,0.6 -2.46,1.32 -3.63,1.83 0.56,-2.32 4.76,-5.24 6.94,-6.38 7.21,-3.76 14.48,-2.58 20.11,2.74 1.31,1.24 5.1,5.48 5.46,8.02zm-11.48 -6.4c-0.38,1.14 -1.05,2.11 0.26,2.77 1.62,0.81 1.88,-0.44 2.53,-1.28 2.66,0.45 -0.07,3.69 -2.85,2.52 -2.34,-0.99 -1.97,-3.3 -1.51,-3.91 0.41,-0.54 0.78,-0.3 1.57,-0.1z"/>
  <path class="fil1" d="M215.27 31.62c-1.31,0.71 -9.99,1.58 -16.94,6.7 -4.39,3.23 -5.27,3.5 -8.86,8.65l-2.31 3.68c-0.29,-4.95 -0.82,-6.6 1.14,-11.01 1.43,-3.22 3.51,-5.41 5.95,-7.11 1.79,-1.25 6.68,-3.78 9.75,-2.96 7.04,1.9 3.97,1.25 11.27,2.05z"/>
  <path class="fil1" d="M233.77 40.58c1.04,-4.46 0.69,-5.6 -4.45,-6.46 -7.97,-1.33 -6.82,-0.15 -11.32,-0.26 1.48,-1.99 5.75,-2.68 8.86,-3.23l-0.79 -8.83c3.32,1.12 8.21,4.99 9.86,7.14 1.88,2.47 2.25,7.02 0.21,9.63 -0.46,0.58 -1.62,1.68 -2.37,2.02z"/>
  <path class="fil1" d="M245.25 50.75c-4.2,5.6 -22.39,7.58 -23.46,-6.01 -0.25,-3.21 1.58,-7.96 3.72,-8.69 -0.78,2.73 -0.36,5.43 0.66,7.87 0.5,1.19 1.1,2.07 1.81,2.97 2.14,2.73 5.22,4.69 9.1,5.21 1.46,0.2 2.98,0.13 4.43,-0.14 1.51,-0.28 2.43,-0.92 3.75,-1.22z"/>
  <path class="fil1" d="M230 21.96c-2.65,-1 -2.32,-1.46 -6.43,-2.53 0.04,0.64 0.65,1.98 0.85,2.83 0.25,1.03 0.55,2.35 0.41,3.42 -2.74,-3.19 -3.17,-5.79 -8.2,-8.75 -1.3,-0.77 -2.42,-1.12 -3.85,-1.83 5.44,-1.25 15.88,3.82 17.22,6.86z"/>
  <path class="fil1" d="M224.34 58.82c-0.78,-1.13 -1.4,-1.19 -2.1,-2.89 4.04,1 6.85,3.09 14.06,2.81 2.59,-0.1 5.21,-0.36 7.52,-0.96 2.33,-0.61 3.99,-1.61 6.17,-2.22 -0.59,1.61 -4.37,4.48 -6.36,5.42 -8.93,4.2 -24.32,1.85 -26.35,-5.71 0.88,0.41 2.2,1.48 3.11,2.08 1.02,0.67 2.4,1.39 3.95,1.48z"/>
  <path class="fil1" d="M207.89 49.26c-0,0 -0.03,0.41 -0.53,-0.32l-1.15 -2.64c-3.68,2.6 -4.81,12.62 -3.27,18.14 0.29,1.04 0.59,1.76 1.1,2.71 0.5,0.93 1.05,1.52 1.44,2.45 -9.23,-3.93 -10.18,-11.63 -12.21,-16.72 -0.99,0.73 -1.46,1.93 -1.77,3.36 -1.72,-2.45 0.86,-7.7 1.95,-9.44 1.47,-2.33 3.98,-4.73 5.98,-6.32 3.87,-3.08 12.05,-6.57 17.66,-7.4 -1.4,1.81 -5.24,3.72 -8.18,10.83 -1.21,2.92 -0.63,4.03 -1.02,5.34z"/>
  <path class="fil1" d="M212.23 22.79c0,0 -1.04,0.99 0.15,2.38 0.78,0.69 1.59,0.97 2.44,0.63 0.68,-0.26 1.17,-0.64 1.22,-1.3 0.06,-0.65 -3.3,-2.52 -3.81,-1.72z"/>
  <g id="_2523014142800">
   <path class="fil3" d="M250.74 0c1,0 1.91,0.41 2.57,1.06 0.66,0.66 1.06,1.57 1.06,2.57 0,1 -0.41,1.91 -1.06,2.57 -0.66,0.66 -1.57,1.06 -2.57,1.06 -1,0 -1.91,-0.41 -2.57,-1.06 -0.66,-0.66 -1.06,-1.57 -1.06,-2.57 0,-1 0.41,-1.91 1.06,-2.57 0.66,-0.66 1.57,-1.06 2.57,-1.06zm2.2 1.43c-0.56,-0.56 -1.34,-0.91 -2.2,-0.91 -0.86,0 -1.64,0.35 -2.2,0.91 -0.56,0.56 -0.91,1.34 -0.91,2.21 0,0.86 0.35,1.64 0.91,2.21 0.56,0.56 1.34,0.91 2.2,0.91 0.86,0 1.64,-0.35 2.2,-0.91 0.56,-0.56 0.91,-1.34 0.91,-2.21 0,-0.86 -0.35,-1.64 -0.91,-2.21z"/>
   <path class="fil3" d="M249.38 5.48l0 -3.69 1.57 0c0.39,0 0.68,0.03 0.86,0.1 0.18,0.07 0.32,0.18 0.43,0.35 0.11,0.17 0.16,0.36 0.16,0.58 0,0.28 -0.08,0.5 -0.24,0.69 -0.16,0.18 -0.4,0.29 -0.73,0.34 0.16,0.09 0.29,0.2 0.4,0.31 0.1,0.11 0.25,0.31 0.42,0.6l0.45 0.72 -0.89 0 -0.53 -0.8c-0.19,-0.29 -0.32,-0.47 -0.39,-0.54 -0.07,-0.07 -0.14,-0.13 -0.22,-0.15 -0.08,-0.03 -0.2,-0.04 -0.38,-0.04l-0.15 0 0 1.54 -0.75 0zm0.75 -2.13l0.55 0c0.36,0 0.58,-0.02 0.67,-0.05 0.09,-0.03 0.16,-0.08 0.21,-0.16 0.05,-0.07 0.08,-0.17 0.08,-0.28 0,-0.12 -0.03,-0.22 -0.1,-0.3 -0.07,-0.08 -0.16,-0.13 -0.28,-0.14 -0.06,-0.01 -0.24,-0.01 -0.54,-0.01l-0.58 0 0 0.94z"/>
  </g>
 </g>
</svg>
